<svg xmlns="http://www.w3.org/2000/svg" viewBox="0 0 64 64">
  <!-- Body -->
  <ellipse cx="32" cy="38" rx="20" ry="22" fill="#2C3330"/>
  <!-- Belly -->
  <ellipse cx="32" cy="42" rx="12" ry="16" fill="#F7F1DE"/>
  <!-- Head -->
  <circle cx="32" cy="18" r="14" fill="#2C3330"/>
  <!-- Face patch -->
  <ellipse cx="32" cy="20" rx="9" ry="8" fill="#F7F1DE"/>
  <!-- Left eye -->
  <circle cx="27" cy="17" r="2.5" fill="#2C3330"/>
  <circle cx="27.8" cy="16.3" r="0.8" fill="#F7F1DE"/>
  <!-- Right eye -->
  <circle cx="37" cy="17" r="2.5" fill="#2C3330"/>
  <circle cx="37.8" cy="16.3" r="0.8" fill="#F7F1DE"/>
  <!-- Beak -->
  <path d="M29 22 L32 26 L35 22 Z" fill="#C4956A"/>
  <!-- Left wing -->
  <path d="M12 30 Q8 42 16 52 Q18 48 16 36 Z" fill="#3D4A45"/>
  <!-- Right wing -->
  <path d="M52 30 Q56 42 48 52 Q46 48 48 36 Z" fill="#3D4A45"/>
  <!-- Left foot -->
  <ellipse cx="25" cy="59" rx="6" ry="3" fill="#C4956A"/>
  <!-- Right foot -->
  <ellipse cx="39" cy="59" rx="6" ry="3" fill="#C4956A"/>
</svg>
